<svg xmlns="http://www.w3.org/2000/svg" viewBox="0 0 1000 1219.9" width="1000" height="1219.9">
  <title>Apron</title>
  <defs>
    <linearGradient id="a-body" gradientUnits="userSpaceOnUse" x1="-22.5" y1="883.0" x2="823.5" y2="440.9"><stop offset="0" stop-color="#F99857"/><stop offset="0.2" stop-color="#F79351"/><stop offset="0.4" stop-color="#F99953"/><stop offset="0.6" stop-color="#F9A253"/><stop offset="0.8" stop-color="#FAAA53"/><stop offset="1" stop-color="#FAAF52"/></linearGradient>
    <linearGradient id="a-cut" gradientUnits="userSpaceOnUse" x1="881.3" y1="-38.2" x2="165.1" y2="1258.1">
      <stop offset="0" stop-color="#FEFAF6" stop-opacity=".6"/>
      <stop offset=".5" stop-color="#FFFFFF"/>
      <stop offset="1" stop-color="#FEFAF6" stop-opacity=".6"/>
    </linearGradient>
    <filter id="a-glow" x="-25%" y="-25%" width="150%" height="150%"><feGaussianBlur stdDeviation="61.1"/></filter>
    <clipPath id="a-sil"><path d="M 381.3 0.0 L 367.2 6.7 L 353.3 13.4 L 344.5 20.1 L 337.5 26.8 L 332.4 33.5 L 328.5 40.2 L 325.4 46.8 L 322.8 53.5 L 320.9 60.2 L 319.8 66.9 L 319.3 73.6 L 319.3 80.3 L 319.3 87.0 L 319.3 93.7 L 319.3 100.4 L 319.3 107.1 L 319.3 113.8 L 319.3 120.5 L 319.3 127.2 L 319.3 133.8 L 319.3 140.5 L 319.3 147.2 L 319.3 153.9 L 319.3 160.6 L 319.3 167.3 L 319.3 174.0 L 319.3 180.7 L 319.1 187.4 L 318.7 194.1 L 318.4 200.8 L 318.4 207.5 L 316.8 214.1 L 311.7 220.8 L 303.3 227.5 L 294.9 234.2 L 288.0 240.9 L 282.5 247.6 L 278.5 254.3 L 275.9 261.0 L 274.2 267.7 L 272.6 274.4 L 271.0 281.1 L 269.7 287.8 L 268.5 294.5 L 267.5 301.1 L 266.4 307.8 L 265.0 314.5 L 263.5 321.2 L 261.8 327.9 L 260.2 334.6 L 258.6 341.3 L 256.8 348.0 L 254.7 354.7 L 252.8 361.4 L 250.8 368.1 L 248.5 374.8 L 246.1 381.5 L 243.9 388.1 L 241.2 394.8 L 238.4 401.5 L 235.6 408.2 L 232.5 414.9 L 229.2 421.6 L 225.7 428.3 L 222.0 435.0 L 218.3 441.7 L 214.5 448.4 L 210.5 455.1 L 205.8 461.8 L 200.9 468.5 L 195.6 475.1 L 190.2 481.8 L 184.7 488.5 L 178.5 495.2 L 171.7 501.9 L 164.3 508.6 L 156.6 515.3 L 148.5 522.0 L 140.0 528.7 L 130.5 535.4 L 120.0 542.1 L 107.7 548.8 L 93.4 555.4 L 75.9 562.1 L 55.3 568.8 L 30.0 575.5 L 10.4 582.2 L 1.7 588.9 L 0.3 595.6 L 0.0 602.3 L 0.0 609.0 L 0.1 615.7 L 0.5 622.4 L 0.9 629.1 L 1.0 635.8 L 1.0 642.4 L 1.0 649.1 L 1.0 655.8 L 1.0 662.5 L 1.0 669.2 L 1.0 675.9 L 1.0 682.6 L 1.0 689.3 L 1.0 696.0 L 0.9 702.7 L 0.5 709.4 L 0.1 716.1 L 0.0 722.8 L 0.0 729.4 L 0.0 736.1 L 0.0 742.8 L 0.0 749.5 L 0.0 756.2 L 0.0 762.9 L 0.0 769.6 L 0.0 776.3 L 0.0 783.0 L 0.0 789.7 L 0.0 796.4 L 0.0 803.1 L 0.0 809.8 L 0.0 816.4 L 0.0 823.1 L 0.0 829.8 L 0.0 836.5 L 0.0 843.2 L 0.0 849.9 L 0.0 856.6 L 0.0 863.3 L 0.0 870.0 L 0.0 876.7 L 0.0 883.4 L 0.0 890.1 L 0.0 896.7 L 0.0 903.4 L 0.0 910.1 L 0.0 916.8 L 0.0 923.5 L 0.0 930.2 L 0.0 936.9 L 0.0 943.6 L 0.0 950.3 L 0.0 957.0 L 0.0 963.7 L 0.0 970.4 L 0.0 977.1 L 0.0 983.7 L 0.0 990.4 L 0.0 997.1 L 0.0 1003.8 L 0.0 1010.5 L 0.0 1017.2 L 0.0 1023.9 L 0.0 1030.6 L 0.0 1037.3 L 0.0 1044.0 L 0.0 1050.7 L 0.0 1057.4 L 0.0 1064.1 L 0.0 1070.7 L 0.0 1077.4 L 0.0 1084.1 L 0.0 1090.8 L 0.0 1097.5 L 0.0 1104.2 L 0.0 1110.9 L 0.0 1117.6 L 0.2 1124.3 L 1.0 1131.0 L 2.4 1137.7 L 4.6 1144.4 L 7.1 1151.1 L 10.1 1157.7 L 14.1 1164.4 L 19.1 1171.1 L 25.4 1177.8 L 33.6 1184.5 L 45.4 1191.2 L 122.0 1197.9 L 193.8 1204.6 L 223.0 1211.3 L 236.0 1218.0 L 239.7 1219.9 L 698.8 1219.9 L 737.8 1218.0 L 878.1 1211.3 L 945.4 1204.6 L 957.4 1197.9 L 966.4 1191.2 L 973.4 1184.5 L 979.3 1177.8 L 984.4 1171.1 L 988.5 1164.4 L 991.6 1157.7 L 994.0 1151.1 L 996.2 1144.4 L 998.1 1137.7 L 999.4 1131.0 L 999.6 1124.3 L 999.3 1117.6 L 999.0 1110.9 L 999.0 1104.2 L 999.0 1097.5 L 999.0 1090.8 L 999.0 1084.1 L 999.0 1077.4 L 999.0 1070.7 L 999.0 1064.1 L 999.0 1057.4 L 999.0 1050.7 L 999.0 1044.0 L 999.0 1037.3 L 999.0 1030.6 L 999.0 1023.9 L 999.0 1017.2 L 999.0 1010.5 L 999.0 1003.8 L 999.0 997.1 L 999.0 990.4 L 999.0 983.7 L 999.0 977.1 L 999.0 970.4 L 999.0 963.7 L 999.0 957.0 L 999.0 950.3 L 998.9 943.6 L 998.5 936.9 L 998.1 930.2 L 998.1 923.5 L 998.1 916.8 L 998.1 910.1 L 998.1 903.4 L 998.1 896.7 L 998.1 890.1 L 998.1 883.4 L 998.1 876.7 L 998.1 870.0 L 998.1 863.3 L 998.1 856.6 L 998.4 849.9 L 998.8 843.2 L 999.0 836.5 L 999.0 829.8 L 999.0 823.1 L 999.0 816.4 L 999.0 809.8 L 999.0 803.1 L 999.0 796.4 L 999.0 789.7 L 999.0 783.0 L 999.0 776.3 L 999.0 769.6 L 999.0 762.9 L 999.0 756.2 L 999.0 749.5 L 999.0 742.8 L 999.0 736.1 L 999.0 729.4 L 999.0 722.8 L 998.9 716.1 L 998.5 709.4 L 998.1 702.7 L 998.1 696.0 L 998.1 689.3 L 998.1 682.6 L 998.1 675.9 L 998.1 669.2 L 998.1 662.5 L 998.1 655.8 L 998.1 649.1 L 998.1 642.4 L 998.1 635.8 L 998.1 629.1 L 998.1 622.4 L 998.1 615.7 L 998.1 609.0 L 998.1 602.3 L 998.0 595.6 L 997.3 588.9 L 992.5 582.2 L 974.2 575.5 L 947.3 568.8 L 923.3 562.1 L 905.2 555.4 L 890.6 548.8 L 878.4 542.1 L 867.7 535.4 L 858.1 528.7 L 849.3 522.0 L 841.5 515.3 L 834.0 508.6 L 827.0 501.9 L 820.8 495.2 L 815.0 488.5 L 809.6 481.8 L 804.3 475.1 L 799.0 468.5 L 794.1 461.8 L 789.6 455.1 L 785.5 448.4 L 781.7 441.7 L 777.8 435.0 L 773.9 428.3 L 770.2 421.6 L 766.7 414.9 L 763.5 408.2 L 760.5 401.5 L 757.6 394.8 L 754.9 388.1 L 752.1 381.5 L 749.4 374.8 L 747.2 368.1 L 744.9 361.4 L 742.4 354.7 L 740.2 348.0 L 738.3 341.3 L 735.7 334.6 L 718.8 327.9 L 703.1 321.2 L 696.9 314.5 L 696.9 307.8 L 696.9 301.1 L 696.9 294.5 L 696.9 287.8 L 696.9 281.1 L 696.9 274.4 L 696.9 267.7 L 696.9 261.0 L 696.9 254.3 L 697.5 247.6 L 696.9 240.9 L 693.3 234.2 L 685.9 227.5 L 679.0 220.8 L 675.6 214.1 L 675.0 207.5 L 675.0 200.8 L 675.0 194.1 L 675.0 187.4 L 675.0 180.7 L 675.0 174.0 L 675.0 167.3 L 675.0 160.6 L 675.0 153.9 L 675.0 147.2 L 675.0 140.5 L 675.0 133.8 L 675.0 127.2 L 675.0 120.5 L 675.0 113.8 L 675.0 107.1 L 675.0 100.4 L 675.0 93.7 L 675.0 87.0 L 675.0 80.3 L 675.0 73.6 L 674.7 66.9 L 673.7 60.2 L 672.0 53.5 L 669.4 46.8 L 666.2 40.2 L 662.1 33.5 L 657.1 26.8 L 650.4 20.1 L 641.3 13.4 L 608.4 6.7 L 528.4 0.0 Z"/></clipPath>
  </defs>
  <path fill-rule="evenodd" fill="url(#a-body)" d="M 381.3 0.0 L 367.2 6.7 L 353.3 13.4 L 344.5 20.1 L 337.5 26.8 L 332.4 33.5 L 328.5 40.2 L 325.4 46.8 L 322.8 53.5 L 320.9 60.2 L 319.8 66.9 L 319.3 73.6 L 319.3 80.3 L 319.3 87.0 L 319.3 93.7 L 319.3 100.4 L 319.3 107.1 L 319.3 113.8 L 319.3 120.5 L 319.3 127.2 L 319.3 133.8 L 319.3 140.5 L 319.3 147.2 L 319.3 153.9 L 319.3 160.6 L 319.3 167.3 L 319.3 174.0 L 319.3 180.7 L 319.1 187.4 L 318.7 194.1 L 318.4 200.8 L 318.4 207.5 L 316.8 214.1 L 311.7 220.8 L 303.3 227.5 L 294.9 234.2 L 288.0 240.9 L 282.5 247.6 L 278.5 254.3 L 275.9 261.0 L 274.2 267.7 L 272.6 274.4 L 271.0 281.1 L 269.7 287.8 L 268.5 294.5 L 267.5 301.1 L 266.4 307.8 L 265.0 314.5 L 263.5 321.2 L 261.8 327.9 L 260.2 334.6 L 258.6 341.3 L 256.8 348.0 L 254.7 354.7 L 252.8 361.4 L 250.8 368.1 L 248.5 374.8 L 246.1 381.5 L 243.9 388.1 L 241.2 394.8 L 238.4 401.5 L 235.6 408.2 L 232.5 414.9 L 229.2 421.6 L 225.7 428.3 L 222.0 435.0 L 218.3 441.7 L 214.5 448.4 L 210.5 455.1 L 205.8 461.8 L 200.9 468.5 L 195.6 475.1 L 190.2 481.8 L 184.7 488.5 L 178.5 495.2 L 171.7 501.9 L 164.3 508.6 L 156.6 515.3 L 148.5 522.0 L 140.0 528.7 L 130.5 535.4 L 120.0 542.1 L 107.7 548.8 L 93.4 555.4 L 75.9 562.1 L 55.3 568.8 L 30.0 575.5 L 10.4 582.2 L 1.7 588.9 L 0.3 595.6 L 0.0 602.3 L 0.0 609.0 L 0.1 615.7 L 0.5 622.4 L 0.9 629.1 L 1.0 635.8 L 1.0 642.4 L 1.0 649.1 L 1.0 655.8 L 1.0 662.5 L 1.0 669.2 L 1.0 675.9 L 1.0 682.6 L 1.0 689.3 L 1.0 696.0 L 0.9 702.7 L 0.5 709.4 L 0.1 716.1 L 0.0 722.8 L 0.0 729.4 L 0.0 736.1 L 0.0 742.8 L 0.0 749.5 L 0.0 756.2 L 0.0 762.9 L 0.0 769.6 L 0.0 776.3 L 0.0 783.0 L 0.0 789.7 L 0.0 796.4 L 0.0 803.1 L 0.0 809.8 L 0.0 816.4 L 0.0 823.1 L 0.0 829.8 L 0.0 836.5 L 0.0 843.2 L 0.0 849.9 L 0.0 856.6 L 0.0 863.3 L 0.0 870.0 L 0.0 876.7 L 0.0 883.4 L 0.0 890.1 L 0.0 896.7 L 0.0 903.4 L 0.0 910.1 L 0.0 916.8 L 0.0 923.5 L 0.0 930.2 L 0.0 936.9 L 0.0 943.6 L 0.0 950.3 L 0.0 957.0 L 0.0 963.7 L 0.0 970.4 L 0.0 977.1 L 0.0 983.7 L 0.0 990.4 L 0.0 997.1 L 0.0 1003.8 L 0.0 1010.5 L 0.0 1017.2 L 0.0 1023.9 L 0.0 1030.6 L 0.0 1037.3 L 0.0 1044.0 L 0.0 1050.7 L 0.0 1057.4 L 0.0 1064.1 L 0.0 1070.7 L 0.0 1077.4 L 0.0 1084.1 L 0.0 1090.8 L 0.0 1097.5 L 0.0 1104.2 L 0.0 1110.9 L 0.0 1117.6 L 0.2 1124.3 L 1.0 1131.0 L 2.4 1137.7 L 4.6 1144.4 L 7.1 1151.1 L 10.1 1157.7 L 14.1 1164.4 L 19.1 1171.1 L 25.4 1177.8 L 33.6 1184.5 L 45.4 1191.2 L 122.0 1197.9 L 193.8 1204.6 L 223.0 1211.3 L 236.0 1218.0 L 239.7 1219.9 L 698.8 1219.9 L 737.8 1218.0 L 878.1 1211.3 L 945.4 1204.6 L 957.4 1197.9 L 966.4 1191.2 L 973.4 1184.5 L 979.3 1177.8 L 984.4 1171.1 L 988.5 1164.4 L 991.6 1157.7 L 994.0 1151.1 L 996.2 1144.4 L 998.1 1137.7 L 999.4 1131.0 L 999.6 1124.3 L 999.3 1117.6 L 999.0 1110.9 L 999.0 1104.2 L 999.0 1097.5 L 999.0 1090.8 L 999.0 1084.1 L 999.0 1077.4 L 999.0 1070.7 L 999.0 1064.1 L 999.0 1057.4 L 999.0 1050.7 L 999.0 1044.0 L 999.0 1037.3 L 999.0 1030.6 L 999.0 1023.9 L 999.0 1017.2 L 999.0 1010.5 L 999.0 1003.8 L 999.0 997.1 L 999.0 990.4 L 999.0 983.7 L 999.0 977.1 L 999.0 970.4 L 999.0 963.7 L 999.0 957.0 L 999.0 950.3 L 998.9 943.6 L 998.5 936.9 L 998.1 930.2 L 998.1 923.5 L 998.1 916.8 L 998.1 910.1 L 998.1 903.4 L 998.1 896.7 L 998.1 890.1 L 998.1 883.4 L 998.1 876.7 L 998.1 870.0 L 998.1 863.3 L 998.1 856.6 L 998.4 849.9 L 998.8 843.2 L 999.0 836.5 L 999.0 829.8 L 999.0 823.1 L 999.0 816.4 L 999.0 809.8 L 999.0 803.1 L 999.0 796.4 L 999.0 789.7 L 999.0 783.0 L 999.0 776.3 L 999.0 769.6 L 999.0 762.9 L 999.0 756.2 L 999.0 749.5 L 999.0 742.8 L 999.0 736.1 L 999.0 729.4 L 999.0 722.8 L 998.9 716.1 L 998.5 709.4 L 998.1 702.7 L 998.1 696.0 L 998.1 689.3 L 998.1 682.6 L 998.1 675.9 L 998.1 669.2 L 998.1 662.5 L 998.1 655.8 L 998.1 649.1 L 998.1 642.4 L 998.1 635.8 L 998.1 629.1 L 998.1 622.4 L 998.1 615.7 L 998.1 609.0 L 998.1 602.3 L 998.0 595.6 L 997.3 588.9 L 992.5 582.2 L 974.2 575.5 L 947.3 568.8 L 923.3 562.1 L 905.2 555.4 L 890.6 548.8 L 878.4 542.1 L 867.7 535.4 L 858.1 528.7 L 849.3 522.0 L 841.5 515.3 L 834.0 508.6 L 827.0 501.9 L 820.8 495.2 L 815.0 488.5 L 809.6 481.8 L 804.3 475.1 L 799.0 468.5 L 794.1 461.8 L 789.6 455.1 L 785.5 448.4 L 781.7 441.7 L 777.8 435.0 L 773.9 428.3 L 770.2 421.6 L 766.7 414.9 L 763.5 408.2 L 760.5 401.5 L 757.6 394.8 L 754.9 388.1 L 752.1 381.5 L 749.4 374.8 L 747.2 368.1 L 744.9 361.4 L 742.4 354.7 L 740.2 348.0 L 738.3 341.3 L 735.7 334.6 L 718.8 327.9 L 703.1 321.2 L 696.9 314.5 L 696.9 307.8 L 696.9 301.1 L 696.9 294.5 L 696.9 287.8 L 696.9 281.1 L 696.9 274.4 L 696.9 267.7 L 696.9 261.0 L 696.9 254.3 L 697.5 247.6 L 696.9 240.9 L 693.3 234.2 L 685.9 227.5 L 679.0 220.8 L 675.6 214.1 L 675.0 207.5 L 675.0 200.8 L 675.0 194.1 L 675.0 187.4 L 675.0 180.7 L 675.0 174.0 L 675.0 167.3 L 675.0 160.6 L 675.0 153.9 L 675.0 147.2 L 675.0 140.5 L 675.0 133.8 L 675.0 127.2 L 675.0 120.5 L 675.0 113.8 L 675.0 107.1 L 675.0 100.4 L 675.0 93.7 L 675.0 87.0 L 675.0 80.3 L 675.0 73.6 L 674.7 66.9 L 673.7 60.2 L 672.0 53.5 L 669.4 46.8 L 666.2 40.2 L 662.1 33.5 L 657.1 26.8 L 650.4 20.1 L 641.3 13.4 L 608.4 6.7 L 528.4 0.0 Z M 381.5 99.3 a 34.3 34.3 0 0 1 34.3 -34.3 L 577.6 65.0 a 34.3 34.3 0 0 1 34.3 34.3 L 611.9 162.60000000000002 a 34.3 34.3 0 0 1 -34.3 34.3 L 415.8 196.9 a 34.3 34.3 0 0 1 -34.3 -34.3 Z"/>
  <g clip-path="url(#a-sil)">
    <line x1="881.3" y1="-38.2" x2="165.1" y2="1258.1" stroke="#FFF1DE" stroke-width="158.3" opacity=".62" filter="url(#a-glow)"/>
    <line x1="881.3" y1="-38.2" x2="165.1" y2="1258.1" stroke="url(#a-cut)" stroke-width="53.1"/>
  </g>
</svg>